#!OML:ASF H:\Terrain\Patient Classification 1\Walking\liu\liu.ASF
:FULLY-SPECIFIED
:DEGREES
305
root 9.04746 16.8536 15.1292 7.42105 -5.21786 -7.90216
lowerback -5.54653 2.63444 5.10915
upperback 0.613837 3.0027 4.23997
thorax 3.78629 1.55072 1.79621
lowerneck -20.8174 -4.80478 -12.8375
upperneck 21.8166 -5.80288 12.3967
head 11.2931 -2.22158 5.82832
rclavicle -1.82385e-014 -3.26007e-014
rhumerus -13.4377 26.6703 -81.8075
rradius 45.4393
rwrist -20.8792
rhand -32.3589 -23.3564
rfingers 7.12502
rthumb -5.59525 -53.2625
lclavicle -1.82385e-014 -3.26007e-014
lhumerus -50.7712 6.00975 79.5217
lradius 12.6262
lwrist -19.3225
lhand -8.5207 -25.3312
lfingers 7.12502
lthumb 17.4078 3.90931
rfemur 17.6763 3.66146 31.9051
rtibia 3.81667e-014
rfoot -5.69583 6.89457
rtoes -16.8921
lfemur -40.5745 0.15504 -10.0341
ltibia 21.3766
lfoot -12.9311 9.8041
ltoes -12.2256
306
root 9.07401 16.8079 15.3443 7.33401 -4.96665 -7.89485
lowerback -5.72112 2.57714 5.13338
upperback 0.715833 2.90403 4.22604
thorax 3.99227 1.50532 1.77264
lowerneck -20.7572 -4.75934 -12.8005
upperneck 21.6047 -5.74588 12.4224
head 11.1935 -2.19038 5.83198
rclavicle 6.01324e-015 3.18055e-015
rhumerus -13.557 26.3695 -81.7885
rradius 45.7967
rwrist -20.7409
rhand -32.1279 -23.048
rfingers 7.12502
rthumb -5.37223 -52.9599
lclavicle 6.01324e-015 3.18055e-015
lhumerus -51.1962 7.92943 77.3537
lradius 12.3186
lwrist -22.5088
lhand -8.09563 -25.3445
lfingers 7.12502
lthumb 17.8168 3.85934
rfemur 18.4794 3.35781 31.7497
rtibia -9.54166e-015
rfoot -5.09584 7.04639
rtoes -18.5659
lfemur -40.5666 1.39177 -11.0947
ltibia 22.5034
lfoot -11.9407 7.92022
ltoes -12.4585
307
root 9.09837 16.7938 15.5586 7.23475 -4.9709 -7.48234
lowerback -5.86499 2.49005 4.6084
upperback 0.716732 2.8176 4.1572
thorax 4.05019 1.45268 1.99108
lowerneck -20.6294 -4.6456 -12.5741
upperneck 21.6801 -5.61936 12.1915
head 11.1619 -2.14496 5.72658
rclavicle -5.54609e-014 -2.38542e-014
rhumerus -13.903 26.3898 -81.9402
rradius 46.1197
rwrist -20.8243
rhand -32.0938 -22.4652
rfingers 7.12502
rthumb -5.33926 -52.378
lclavicle -5.54609e-014 -2.38542e-014
lhumerus -51.7364 9.46261 75.6892
lradius 11.9639
lwrist -24.4041
lhand -7.32796 -24.8641
lfingers 7.12502
lthumb 18.5554 4.27095
rfemur 19.2339 3.27067 31.1045
rtibia 1.04958e-013
rfoot -4.10371 7.03402
rtoes -19.0331
lfemur -40.6274 1.88125 -12.0207
ltibia 23.6831
lfoot -10.1997 7.31196
ltoes -12.9528
308
root 9.1176 16.8184 15.7668 7.47411 -5.11414 -7.07283
lowerback -6.13778 2.53576 4.06563
upperback 0.609237 2.90868 4.08003
thorax 4.06771 1.48662 2.231
lowerneck -20.6762 -4.67408 -12.5309
upperneck 21.736 -5.63706 12.0569
head 11.1883 -2.16397 5.66637
rclavicle 8.19987e-015 -1.74931e-014
rhumerus -14.0819 26.0896 -81.9066
rradius 46.1679
rwrist -20.4072
rhand -31.4832 -22.4309
rfingers 7.12502
rthumb -4.74968 -52.3576
lclavicle 8.19987e-015 -1.74931e-014
lhumerus -52.1714 11.7063 73.2416
lradius 11.2316
lwrist -27.6118
lhand -6.23693 -24.0815
lfingers 7.12502
lthumb 19.6046 4.94998
rfemur 19.5885 3.38941 30.3987
rtibia -4.77083e-014
rfoot -2.8201 7.0257
rtoes -17.2829
lfemur -40.9979 2.40265 -12.8473
ltibia 24.6241
lfoot -7.67675 7.29234
ltoes -15.1538
309
root 9.1351 16.8261 15.9888 7.60108 -5.15305 -7.07033
lowerback -6.49035 2.62401 3.969
upperback 0.73467 3.0015 4.09714
thorax 4.39091 1.53221 2.33646
lowerneck -21.0836 -4.83895 -12.6686
upperneck 21.674 -5.78526 12.1129
head 11.2728 -2.2238 5.68569
rclavicle -3.27995e-015 -4.29375e-014
rhumerus -13.9774 25.9275 -81.7316
rradius 46.1017
rwrist -20.4785
rhand -31.2733 -22.2487
rfingers 7.12502
rthumb -4.54709 -52.1799
lclavicle -3.27995e-015 -4.29375e-014
lhumerus -52.4955 14.0969 70.6639
lradius 10.7678
lwrist -31.1417
lhand -7.09114 -25.1953
lfingers 7.12502
lthumb 18.7832 3.91784
rfemur 20.0546 3.4213 30.1577
rtibia -4.13472e-014
rfoot -1.6612 7.20263
rtoes -16.6138
lfemur -41.2252 3.01862 -13.2564
ltibia 25.4457
lfoot -5.31378 7.0392
ltoes -15.8369
310
root 9.15817 16.8153 16.2177 7.43158 -5.0702 -6.92925
lowerback -6.62099 2.60983 3.7648
upperback 0.892165 2.98185 4.1012
thorax 4.61839 1.51898 2.46618
lowerneck -21.4869 -4.96381 -12.8818
upperneck 21.8149 -5.90094 12.2913
head 11.435 -2.2617 5.77985
rclavicle 8.74653e-015 1.74931e-014
rhumerus -14.2112 25.9713 -81.8304
rradius 46.1919
rwrist -21.1929
rhand -32.3135 -22.1807
rfingers 7.12502
rthumb -5.55144 -52.088
lclavicle 8.74653e-015 1.74931e-014
lhumerus -52.9566 16.5302 68.02
lradius 10.308
lwrist -34.2415
lhand -6.94323 -25.4082
lfingers 7.12502
lthumb 18.9254 3.69106
rfemur 20.7866 3.2752 29.7846
rtibia -3.81667e-014
rfoot -0.343643 7.06678
rtoes -18.7134
lfemur -41.2152 3.23624 -13.6202
ltibia 26.4195
lfoot -3.65157 6.71768
ltoes -14.5477
311
root 9.1808 16.7905 16.4341 7.23207 -4.88436 -6.43273
lowerback -6.41968 2.47679 3.20852
upperback 0.681773 2.87917 3.98867
thorax 4.2631 1.45535 2.62785
lowerneck -20.9804 -4.88494 -12.9838
upperneck 21.9146 -5.84814 12.3689
head 11.3724 -2.25341 5.83998
rclavicle 2.68359e-014 -4.77083e-015
rhumerus -15.2484 25.9179 -82.3959
rradius 46.2801
rwrist -21.4915
rhand -33.1891 -22.6455
rfingers 7.12502
rthumb -6.39681 -52.5289
lclavicle 2.68359e-014 -4.77083e-015
lhumerus -53.285 16.8658 67.6596
lradius 9.69956
lwrist -34.4615
lhand -7.1932 -25.4538
lfingers 7.12502
lthumb 18.685 3.6688
rfemur 21.6031 2.99073 29.0759
rtibia -6.67916e-014
rfoot 1.236 6.56204
rtoes -20.2929
lfemur -41.1517 3.43175 -14.4155
ltibia 27.6273
lfoot -2.77068 6.28248
ltoes -13.5772
312
root 9.19921 16.7903 16.6587 7.05826 -4.74801 -5.97231
lowerback -6.36105 2.45479 2.76397
upperback 0.531077 2.9031 3.81645
thorax 4.05836 1.45939 2.68956
lowerneck -20.4557 -4.87795 -13.0929
upperneck 21.8754 -5.89883 12.4921
head 11.2719 -2.28717 5.89578
rclavicle 2.64881e-014 1.19271e-014
rhumerus -16.3156 25.2277 -82.8821
rradius 46.3359
rwrist -21.0851
rhand -33.1642 -22.5859
rfingers 7.12502
rthumb -6.37272 -52.47
lclavicle 2.64881e-014 1.19271e-014
lhumerus -53.4242 16.93 67.3398
lradius 9.06192
lwrist -35.3604
lhand -8.16071 -26.0185
lfingers 7.12502
lthumb 17.7542 3.19101
rfemur 22.4742 2.76111 28.4353
rtibia -2.22639e-014
rfoot 2.80653 6.43271
rtoes -21.8857
lfemur -40.8204 3.84847 -15.2566
ltibia 28.8069
lfoot -2.4924 5.70755
ltoes -12.4241
313
root 9.21881 16.7947 16.8916 6.96017 -4.70491 -5.59321
lowerback -6.61637 2.51657 2.45087
upperback 0.582613 3.00307 3.62298
thorax 4.24704 1.50403 2.68872
lowerneck -20.5255 -4.97871 -13.1322
upperneck 21.9104 -6.07957 12.6951
head 11.336 -2.34658 5.95391
rclavicle 5.14852e-014 1.19271e-014
rhumerus -16.9117 24.1815 -83.2035
rradius 46.1046
rwrist -20.3981
rhand -32.6827 -22.1409
rfingers 7.12502
rthumb -5.90785 -52.0385
lclavicle 5.14852e-014 1.19271e-014
lhumerus -53.0331 17.0379 67.1531
lradius 8.82574
lwrist -35.5385
lhand -7.16888 -25.1322
lfingers 7.12502
lthumb 18.7084 3.98818
rfemur 20.6652 2.56967 27.8419
rtibia 5.11577
rfoot 2.41742 6.98383
rtoes -22.611
lfemur -40.7059 4.27726 -15.973
ltibia 30.1285
lfoot -2.2469 5.15433
ltoes -10.951
